<?xml version="1.0" encoding="UTF-8" standalone="no"?>
<svg xmlns:dc="http://purl.org/dc/elements/1.1/" xmlns:cc="http://creativecommons.org/ns#" xmlns:rdf="http://www.w3.org/1999/02/22-rdf-syntax-ns#"
  xmlns:svg="http://www.w3.org/2000/svg" xmlns="http://www.w3.org/2000/svg" viewBox="0 0 113 114" height="245" width="245"
  xml:space="preserve" id="svg2" version="1.1">
  <metadata id="metadata8">
    <rdf:RDF>
      <cc:Work rdf:about="">
        <dc:format>image/svg+xml</dc:format>
        <dc:type rdf:resource="http://purl.org/dc/dcmitype/StillImage" />
      </cc:Work>
    </rdf:RDF>
  </metadata>
  <g transform="matrix(1.3333333,0,0,-1.3333333,-75,186)" id="g10">
    <g id="g12">
      <g clip-path="url(#clipPath18)" id="g14">
        <g transform="translate(56.3335,96.8389)" id="g20">
          <path id="path22" style="fill:#ed5a27;fill-opacity:1;fill-rule:nonzero;stroke:none" d="M 0,0 C 0,23.483 19.037,42.52 42.52,42.52 66.004,42.52 85.039,23.483 85.039,0 85.039,-23.483 66.004,-42.52 42.52,-42.52 19.037,-42.52 0,-23.483 0,0"
          />
        </g>
        <g transform="translate(83.3062,110.2734)" id="g24">
          <path id="path26" style="fill:#ffffff;fill-opacity:1;fill-rule:nonzero;stroke:none" d="m 0,0 c 0,-2.541 -2.061,-4.599 -4.603,-4.599 -2.538,0 -4.594,2.058 -4.594,4.599 0,2.539 2.056,4.599 4.594,4.599 C -2.061,4.599 0,2.539 0,0"
          />
        </g>
        <path id="path28" style="fill:#ffffff;fill-opacity:1;fill-rule:nonzero;stroke:none" d="m 109.948,103.273 h -5.001 v -24 h 5.001 z"
        />
        <path id="path30" style="fill:#ffffff;fill-opacity:1;fill-rule:nonzero;stroke:none" d="m 72.447,103.273 h 5 v -24 h -5 z"
        />
        <path id="path32" style="fill:#ffffff;fill-opacity:1;fill-rule:nonzero;stroke:none" d="m 77.447,98.273 h -10 v 5 h 10 z"
        />
        <path id="path34" style="fill:#ffffff;fill-opacity:1;fill-rule:nonzero;stroke:none" d="m 85.447,103.273 h -5 v -24 h 5 z"
        />
        <path id="path36" style="fill:#ffffff;fill-opacity:1;fill-rule:nonzero;stroke:none" d="m 80.447,98.273 h 9 v 5 h -9 z"
        />
        <path id="path38" style="fill:#ffffff;fill-opacity:1;fill-rule:nonzero;stroke:none" d="m 118.947,102.273 h 5 v -23 h -5 z"
        />
        <g transform="translate(102.2476,95.3203)" id="g40">
          <path id="path42" style="fill:#ffffff;fill-opacity:1;fill-rule:nonzero;stroke:none" d="m 0,0 c 0,4.619 -1.822,7.953 -9.404,7.953 h -0.631 l -0.019,-5 h 0.422 c 3.025,0 4.261,-0.733 4.261,-3.531 0.003,-2.733 -1.297,-3.469 -4.194,-3.469 h -4.236 v -4.268 l 3.528,0.002 4.373,-8.004 5.652,0.003 -4.807,8.628 C -1.053,-6.416 0,-3.316 0,0"
          />
        </g>
        <path id="path44" style="fill:#ffffff;fill-opacity:1;fill-rule:nonzero;stroke:none" d="m 130.447,98.273 h -18 v 5 h 18 z"
        />
      </g>
    </g>
  </g>
</svg>